<svg version="1.1" preserveAspectRatio="none" xmlns="http://www.w3.org/2000/svg" width="500" height="500" viewBox="0 0 500 500"><rect width="100%" height="100%" fill="#101F37" fill-opacity="1"/><svg viewBox="79.4088 222.2528 380.4243 231.1515" width="333" height="202.33578533232497" x="83.5px" y="148.8321px" xmlns="http://www.w3.org/2000/svg" xmlns:xlink="http://www.w3.org/1999/xlink" preserveAspectRatio="none"><defs></defs><style>.companyName {fill:#E9B0D6;fill-opacity:1;}.icon1 {fill:#929292;fill-opacity:1;}.icon2 {fill:#E9B0D6;fill-opacity:1;}.icon3 {fill:#E5E5E5;fill-opacity:1;}.icon3-str {stroke:#E5E5E5;stroke-opacity:1;}</style><g opacity="1" transform="rotate(0 79.4088 403.4043)">
<svg width="380.4243" height="50" x="79.4088" y="403.4043" version="1.1" preserveAspectRatio="none" viewBox="4.3359 -30.8984 238.21099999999998 31.3086">
  <g transform="matrix(1 0 0 1 0 0)" class="companyName"><path id="id-D6z1nYkh7" d="M4.34 0L4.34-30.53L31.64-30.53L31.64-25.10L10.53-25.10L10.53-17.11L28.46-17.11L28.46-12.01L10.53-12.01L10.53 0L4.34 0Z M38.84 0L38.84-30.53L45.07-30.53L45.07 0L38.84 0Z M54.92 0L54.92-30.53L61.11-30.53L80.13-20.57L80.13-30.53L86.32-30.53L86.32 0L80.13 0L80.13-14.00L61.11-23.91L61.11 0L54.92 0Z M93.03 0L107.37-30.53L113.93-30.53L128.70 0L122.19 0L119.75-5.14L101.92-5.14L99.55 0L93.03 0ZM104.28-10.23L117.31-10.23L110.71-24.10L104.28-10.23Z M135.40 0L135.40-30.53L141.59-30.53L160.62-20.57L160.62-30.53L166.81-30.53L166.81 0L160.62 0L160.62-14.00L141.59-23.91L141.59 0L135.40 0Z M175.59-15.45L175.59-15.45Q175.59-18.71 176.82-21.53Q178.05-24.36 180.38-26.44Q182.71-28.52 186.08-29.71Q189.45-30.90 193.71-30.90L193.71-30.90Q197.44-30.90 200.56-30.15Q203.67-29.39 206.35-27.85L206.35-27.85L203.50-23.16Q202.70-23.69 201.65-24.10Q200.61-24.51 199.42-24.79Q198.24-25.08 196.98-25.23Q195.72-25.39 194.49-25.39L194.49-25.39Q191.52-25.39 189.20-24.66Q186.88-23.93 185.28-22.61Q183.69-21.29 182.86-19.46Q182.03-17.64 182.03-15.45L182.03-15.45Q182.03-13.18 182.89-11.29Q183.75-9.39 185.38-8.02Q187.01-6.64 189.37-5.87Q191.72-5.10 194.69-5.10L194.69-5.10Q196.04-5.10 197.36-5.29Q198.69-5.49 199.93-5.83Q201.17-6.17 202.32-6.65Q203.48-7.13 204.47-7.70L204.47-7.70L207.32-3.01Q204.82-1.41 201.54-0.50Q198.26 0.41 194.57 0.41L194.57 0.41Q189.86 0.41 186.31-0.81Q182.75-2.03 180.37-4.17Q177.99-6.31 176.79-9.21Q175.59-12.11 175.59-15.45Z M216.14 0L216.14-30.53L242.14-30.53L242.14-25.10L222.33-25.10L222.33-19.00L239.87-19.00L239.87-13.91L222.33-13.91L222.33-5.41L242.55-5.41L242.55 0L216.14 0Z"/></g>
</svg>
</g><g opacity="1" transform="rotate(0 193.5361 222.2528)">
<svg width="152.1697" height="151.1515" x="193.5361" y="222.2528" version="1.1" preserveAspectRatio="none" viewBox="20 20.470754623413086 160 158.92926025390625">
  <g transform="matrix(1 0 0 1 0 0)"><g><path d="M21.2 99.7l66.5-.4c.7 0 1.2-.6 1.2-1.2 0-.7-.6-1.2-1.2-1.2l-65.2.4c.2-9.4 2.3-18.8 6-27.6l.1.1c2.8 1.7 6.2 2.1 9.4 1.3 2.6-.7 4.9-2.2 6.6-4.3L69 87c.4.3.9.4 1.3.2s.7-.6.7-1.1V27.7c5.5-2.1 11.7-3.6 18.5-4.4.2 6.3 5.3 11.5 11.7 12v15.4c0 .2 0 .3.1.5.1.5.6.9 1.2.9 25.9 0 47 17.1 47 38.2 0 .7.5 1.2 1.2 1.2.2 0 .3 0 .5-.1l14.9-6.5c.9 2.3 2.5 4.2 4.6 5.4 2.5 1.5 5.5 2 8.3 1.2.7-.2 1.1-.8.9-1.5v-.2c0-33.5-27.7-61.4-65.3-67.9-.2-.2-9.7-1.3-14.1-1.4C73 19.8 54.7 31.8 44.2 42 29.1 56.8 20 77.9 20 98.5c0 .7.5 1.2 1.2 1.2zm153.6-27.4c1.8 5.5 2.7 11.3 2.7 17-1.9.3-3.9-.1-5.5-1.1-2-1.2-3.4-3.1-3.9-5.3-1.1-4.6 1.6-9.3 6.2-10.4.2 0 .3-.1.5-.2zM115 24.5c28.3 5.2 50.8 22.8 59.1 45.7h-.3c-5.5 1.4-9.1 6.8-8.2 12.3l-13.6 6c-1.2-21.2-22.2-38.2-48.2-38.7V35.3c5.8-.6 10.4-5.1 11.2-10.8zM100.4 23c4.1.1 8.2.5 12.2 1.1-.6 5-5 8.9-10.2 8.9-5.6 0-10.2-4.4-10.3-9.8 2.7-.2 5.5-.3 8.3-.2zM45.9 43.8c5.4-5.2 12.9-10.9 22.7-15.1v54.8L45.8 64.6c1.4-2.7 1.7-5.8.9-8.7-.8-3-2.7-5.6-5.4-7.3 1.5-1.6 3-3.3 4.6-4.8zm-6.1 6.8c2.3 1.3 3.9 3.5 4.6 6 .7 2.5.3 5.2-1 7.5s-3.5 3.9-6 4.6c-2.5.7-5.2.3-7.5-1-.1-.1-.3-.1-.4-.1 2.6-6.2 6.1-11.9 10.3-17z" data-color="1" class="icon1"></path><path d="M178.7 108.9h-29.1c-.7 0-1.2.5-1.2 1.2s.5 1.2 1.2 1.2h27.9c-.6 27-19.7 50.2-46.7 60.2v-58.2c5.4-.6 9.7-5.1 9.7-10.7 0-5.7-4.5-10.4-10.1-10.7-3.5-20.7-24.9-22.1-25.1-22.1-.7 0-1.3.5-1.3 1.2v37.4H50.1c-.7 0-1.2.5-1.2 1.2 0 22.1 21.5 40.1 48.2 40.6 0 0-.2 13.2 0 13.4-6.2 0-12.5 5.3-13.1 11.8-34.6-6.6-60.6-33.4-60.6-65.3 0-.7-.5-1.2-1.2-1.2s-1.2.5-1.2 1.2c0 38.2 35.7 69.3 79.5 69.3 43.9 0 79.5-31.1 79.5-69.3 0-.6-.6-1.2-1.3-1.2zm-78.3 68.2c-4.7 0-9.4-.4-14.1-1.1.4-5.4 5.3-9.8 11.2-9.8 6.2 0 11.3 4.7 11.3 10.5-2.7.2-5.5.4-8.4.4zm10.9-.7c-.1-6.5-5.1-11.8-11.8-12.6l.1-14.6c0-.2 0-.3-.1-.5-.1-.5-.6-.9-1.2-.9-25.4 0-46.2-16.5-47-36.9h53.8c.7 0 1.2-.5 1.2-1.2V72.5c4.4.6 18.7 3.9 21.5 19.7-5.1.8-9 5.3-9 10.6 0 5.5 4.1 10 9.4 10.7v58.8c0 .1 0 .2.1.3-5.5 1.8-11.2 3.1-17 3.8zm10.1-73.6c0-4.6 3.7-8.3 8.3-8.3 4.6 0 8.3 3.7 8.3 8.3s-3.7 8.3-8.3 8.3c-4.6 0-8.3-3.7-8.3-8.3z" data-color="1" class="icon1"></path><path d="M85.5 38v47.5c0 .7.5 1.2 1.2 1.2s1.2-.5 1.2-1.2V38c0-.7-.5-1.2-1.2-1.2-.6 0-1.2.5-1.2 1.2z" data-color="1" class="icon1"></path><path d="M112.8 123.4H79.6c-.7 0-1.2.5-1.2 1.2s.5 1.2 1.2 1.2h31.9v33.8c0 .7.5 1.2 1.2 1.3.7 0 1.2-.5 1.3-1.2v-35.1c0-.7-.6-1.2-1.2-1.2z" data-color="1" class="icon1"></path><path d="M36.3 108.8c-.7 0-1.2.5-1.3 1.2 0 .3-.8 34.7 42.7 52.9.6.3 1.3 0 1.6-.7.3-.6 0-1.3-.7-1.6-41.8-17.5-41.2-50.2-41.2-50.6.1-.6-.4-1.1-1.1-1.2z" data-color="1" class="icon1"></path><path d="M139.7 150.5c.3.6 1.1.8 1.6.5.6-.3 14.6-7.9 22.8-29.5.3-.6 0-1.3-.7-1.6-.6-.3-1.3 0-1.6.7v.1c-7.9 20.7-21.6 28.1-21.7 28.2-.5.3-.7 1-.4 1.6z" data-color="1" class="icon1"></path><path d="M121.6 40.3c.2 0 19.8 3.5 32.5 23.6.4.6 1.1.7 1.7.4.6-.4.7-1.1.4-1.7-13.3-21-33.3-24.6-34.1-24.7-.7-.1-1.3.3-1.4 1-.2.7.2 1.3.9 1.4z" data-color="1" class="icon1"></path></g></g>
</svg>
</g></svg></svg>